<svg width="14" height="8" viewBox="0 0 14 8" fill="none" xmlns="http://www.w3.org/2000/svg">
<path d="M3.12 7.12C2.64 7.12 2.22333 7.03333 1.87 6.86C1.51667 6.68667 1.23333 6.45 1.02 6.15C0.813333 5.84333 0.686667 5.49667 0.64 5.11H1.46C1.54 5.49667 1.72667 5.81 2.02 6.05C2.31333 6.28333 2.68333 6.4 3.13 6.4C3.46333 6.4 3.75 6.32333 3.99 6.17C4.23 6.01 4.41333 5.79667 4.54 5.53C4.67333 5.26333 4.74 4.96667 4.74 4.64C4.74 4.12 4.59333 3.7 4.3 3.38C4.00667 3.06 3.62667 2.9 3.16 2.9C2.77333 2.9 2.44333 2.98667 2.17 3.16C1.89667 3.33333 1.69667 3.56 1.57 3.84H0.77L1.37 -4.76837e-07H5.04V0.73H2.02L1.61 2.86C1.77 2.66667 1.99 2.50667 2.27 2.38C2.55667 2.25333 2.88333 2.19 3.25 2.19C3.71 2.19 4.11 2.29667 4.45 2.51C4.79667 2.72333 5.06667 3.01333 5.26 3.38C5.45333 3.74667 5.55 4.16333 5.55 4.63C5.55 5.07667 5.45333 5.49 5.26 5.87C5.07333 6.25 4.79667 6.55333 4.43 6.78C4.07 7.00667 3.63333 7.12 3.12 7.12ZM7.15305 7.05C6.98638 7.05 6.84638 6.99667 6.73305 6.89C6.62638 6.77667 6.57305 6.64 6.57305 6.48C6.57305 6.32 6.62638 6.18667 6.73305 6.08C6.84638 5.96667 6.98638 5.91 7.15305 5.91C7.31305 5.91 7.44638 5.96667 7.55305 6.08C7.66638 6.18667 7.72305 6.32 7.72305 6.48C7.72305 6.64 7.66638 6.77667 7.55305 6.89C7.44638 6.99667 7.31305 7.05 7.15305 7.05ZM12.0862 7V5.5H8.53617V4.85L11.9362 -4.76837e-07H12.9162V4.76H13.9562V5.5H12.9162V7H12.0862ZM9.46617 4.76H12.1262V0.929999L9.46617 4.76Z" fill="white"/>
<path d="M3.12 7.12C2.64 7.12 2.22333 7.03333 1.87 6.86C1.51667 6.68667 1.23333 6.45 1.02 6.15C0.813333 5.84333 0.686667 5.49667 0.64 5.11H1.46C1.54 5.49667 1.72667 5.81 2.02 6.05C2.31333 6.28333 2.68333 6.4 3.13 6.4C3.46333 6.4 3.75 6.32333 3.99 6.17C4.23 6.01 4.41333 5.79667 4.54 5.53C4.67333 5.26333 4.74 4.96667 4.74 4.64C4.74 4.12 4.59333 3.7 4.3 3.38C4.00667 3.06 3.62667 2.9 3.16 2.9C2.77333 2.9 2.44333 2.98667 2.17 3.16C1.89667 3.33333 1.69667 3.56 1.57 3.84H0.77L1.37 -4.76837e-07H5.04V0.73H2.02L1.61 2.86C1.77 2.66667 1.99 2.50667 2.27 2.38C2.55667 2.25333 2.88333 2.19 3.25 2.19C3.71 2.19 4.11 2.29667 4.45 2.51C4.79667 2.72333 5.06667 3.01333 5.26 3.38C5.45333 3.74667 5.55 4.16333 5.55 4.63C5.55 5.07667 5.45333 5.49 5.26 5.87C5.07333 6.25 4.79667 6.55333 4.43 6.78C4.07 7.00667 3.63333 7.12 3.12 7.12ZM7.15305 7.05C6.98638 7.05 6.84638 6.99667 6.73305 6.89C6.62638 6.77667 6.57305 6.64 6.57305 6.48C6.57305 6.32 6.62638 6.18667 6.73305 6.08C6.84638 5.96667 6.98638 5.91 7.15305 5.91C7.31305 5.91 7.44638 5.96667 7.55305 6.08C7.66638 6.18667 7.72305 6.32 7.72305 6.48C7.72305 6.64 7.66638 6.77667 7.55305 6.89C7.44638 6.99667 7.31305 7.05 7.15305 7.05ZM12.0862 7V5.5H8.53617V4.85L11.9362 -4.76837e-07H12.9162V4.76H13.9562V5.5H12.9162V7H12.0862ZM9.46617 4.76H12.1262V0.929999L9.46617 4.76Z" fill="black" fill-opacity="0.4"/>
</svg>
