<svg width="39" height="15" viewBox="0 0 39 15" fill="none" xmlns="http://www.w3.org/2000/svg">
<mask id="mask0_1509_1640" style="mask-type:alpha" maskUnits="userSpaceOnUse" x="0" y="0" width="14" height="15">
<rect y="0.5" width="14" height="14" fill="#D9D9D9"/>
</mask>
<g mask="url(#mask0_1509_1640)">
<path d="M10.5059 9.73818C11.3552 10.1648 12.0833 10.8495 12.6148 11.7056C12.72 11.8752 12.7727 11.9599 12.7908 12.0773C12.8278 12.3159 12.6647 12.6091 12.4425 12.7035C12.3332 12.75 12.2102 12.75 11.9642 12.75M9.33922 7.22714C10.2036 6.7976 10.7976 5.90567 10.7976 4.875C10.7976 3.84433 10.2036 2.9524 9.33922 2.52286M8.17255 4.875C8.17255 6.32475 6.9973 7.5 5.54755 7.5C4.09781 7.5 2.92255 6.32475 2.92255 4.875C2.92255 3.42525 4.09781 2.25 5.54755 2.25C6.9973 2.25 8.17255 3.42525 8.17255 4.875ZM1.49877 11.5474C2.42878 10.151 3.89635 9.25 5.54755 9.25C7.19875 9.25 8.66632 10.151 9.59634 11.5474C9.80008 11.8533 9.90195 12.0062 9.89022 12.2016C9.88109 12.3538 9.78136 12.54 9.6598 12.6319C9.50367 12.75 9.28895 12.75 8.85951 12.75H2.23559C1.80615 12.75 1.59143 12.75 1.43531 12.6319C1.31375 12.54 1.21402 12.3538 1.20489 12.2016C1.19316 12.0062 1.29503 11.8533 1.49877 11.5474Z" stroke="white" stroke-linecap="round" stroke-linejoin="round"/>
<path d="M10.5059 9.73818C11.3552 10.1648 12.0833 10.8495 12.6148 11.7056C12.72 11.8752 12.7727 11.9599 12.7908 12.0773C12.8278 12.3159 12.6647 12.6091 12.4425 12.7035C12.3332 12.75 12.2102 12.75 11.9642 12.75M9.33922 7.22714C10.2036 6.7976 10.7976 5.90567 10.7976 4.875C10.7976 3.84433 10.2036 2.9524 9.33922 2.52286M8.17255 4.875C8.17255 6.32475 6.9973 7.5 5.54755 7.5C4.09781 7.5 2.92255 6.32475 2.92255 4.875C2.92255 3.42525 4.09781 2.25 5.54755 2.25C6.9973 2.25 8.17255 3.42525 8.17255 4.875ZM1.49877 11.5474C2.42878 10.151 3.89635 9.25 5.54755 9.25C7.19875 9.25 8.66632 10.151 9.59634 11.5474C9.80008 11.8533 9.90195 12.0062 9.89022 12.2016C9.88109 12.3538 9.78136 12.54 9.6598 12.6319C9.50367 12.75 9.28895 12.75 8.85951 12.75H2.23559C1.80615 12.75 1.59143 12.75 1.43531 12.6319C1.31375 12.54 1.21402 12.3538 1.20489 12.2016C1.19316 12.0062 1.29503 11.8533 1.49877 11.5474Z" stroke="black" stroke-opacity="0.9" stroke-linecap="round" stroke-linejoin="round"/>
</g>
<path d="M17.43 11V4.94L16.3 5.19V4.61L17.71 4H18.28V11H17.43ZM22.5376 11.12C21.9176 11.12 21.3809 10.97 20.9276 10.67C20.4809 10.3633 20.1376 9.94 19.8976 9.4C19.6576 8.85333 19.5376 8.22 19.5376 7.5C19.5376 6.78 19.6576 6.15 19.8976 5.61C20.1376 5.06333 20.4809 4.64 20.9276 4.34C21.3809 4.03333 21.9176 3.88 22.5376 3.88C23.1576 3.88 23.6909 4.03333 24.1376 4.34C24.5842 4.64 24.9276 5.06333 25.1676 5.61C25.4076 6.15 25.5276 6.78 25.5276 7.5C25.5276 8.22 25.4076 8.85333 25.1676 9.4C24.9276 9.94 24.5842 10.3633 24.1376 10.67C23.6909 10.97 23.1576 11.12 22.5376 11.12ZM22.5376 10.38C22.9442 10.38 23.3076 10.2667 23.6276 10.04C23.9542 9.80667 24.2076 9.47667 24.3876 9.05C24.5742 8.61667 24.6676 8.1 24.6676 7.5C24.6676 6.9 24.5742 6.38667 24.3876 5.96C24.2076 5.53333 23.9542 5.20667 23.6276 4.98C23.3076 4.74667 22.9442 4.63 22.5376 4.63C22.1242 4.63 21.7576 4.74667 21.4376 4.98C21.1176 5.20667 20.8642 5.53333 20.6776 5.96C20.4909 6.38667 20.3976 6.9 20.3976 7.5C20.3976 8.1 20.4909 8.61667 20.6776 9.05C20.8642 9.47667 21.1176 9.80667 21.4376 10.04C21.7576 10.2667 22.1242 10.38 22.5376 10.38ZM29.5212 11.12C28.9012 11.12 28.3645 10.97 27.9112 10.67C27.4645 10.3633 27.1212 9.94 26.8812 9.4C26.6412 8.85333 26.5212 8.22 26.5212 7.5C26.5212 6.78 26.6412 6.15 26.8812 5.61C27.1212 5.06333 27.4645 4.64 27.9112 4.34C28.3645 4.03333 28.9012 3.88 29.5212 3.88C30.1412 3.88 30.6745 4.03333 31.1212 4.34C31.5678 4.64 31.9112 5.06333 32.1512 5.61C32.3912 6.15 32.5112 6.78 32.5112 7.5C32.5112 8.22 32.3912 8.85333 32.1512 9.4C31.9112 9.94 31.5678 10.3633 31.1212 10.67C30.6745 10.97 30.1412 11.12 29.5212 11.12ZM29.5212 10.38C29.9278 10.38 30.2912 10.2667 30.6112 10.04C30.9378 9.80667 31.1912 9.47667 31.3712 9.05C31.5578 8.61667 31.6512 8.1 31.6512 7.5C31.6512 6.9 31.5578 6.38667 31.3712 5.96C31.1912 5.53333 30.9378 5.20667 30.6112 4.98C30.2912 4.74667 29.9278 4.63 29.5212 4.63C29.1078 4.63 28.7412 4.74667 28.4212 4.98C28.1012 5.20667 27.8478 5.53333 27.6612 5.96C27.4745 6.38667 27.3812 6.9 27.3812 7.5C27.3812 8.1 27.4745 8.61667 27.6612 9.05C27.8478 9.47667 28.1012 9.80667 28.4212 10.04C28.7412 10.2667 29.1078 10.38 29.5212 10.38ZM33.7248 11V3.8H34.5648V8.13L36.5948 6.04H37.6248L35.4248 8.28L37.9048 11H36.8348L34.5648 8.43V11H33.7248Z" fill="white"/>
<path d="M17.43 11V4.94L16.3 5.19V4.61L17.71 4H18.28V11H17.43ZM22.5376 11.12C21.9176 11.12 21.3809 10.97 20.9276 10.67C20.4809 10.3633 20.1376 9.94 19.8976 9.4C19.6576 8.85333 19.5376 8.22 19.5376 7.5C19.5376 6.78 19.6576 6.15 19.8976 5.61C20.1376 5.06333 20.4809 4.64 20.9276 4.34C21.3809 4.03333 21.9176 3.88 22.5376 3.88C23.1576 3.88 23.6909 4.03333 24.1376 4.34C24.5842 4.64 24.9276 5.06333 25.1676 5.61C25.4076 6.15 25.5276 6.78 25.5276 7.5C25.5276 8.22 25.4076 8.85333 25.1676 9.4C24.9276 9.94 24.5842 10.3633 24.1376 10.67C23.6909 10.97 23.1576 11.12 22.5376 11.12ZM22.5376 10.38C22.9442 10.38 23.3076 10.2667 23.6276 10.04C23.9542 9.80667 24.2076 9.47667 24.3876 9.05C24.5742 8.61667 24.6676 8.1 24.6676 7.5C24.6676 6.9 24.5742 6.38667 24.3876 5.96C24.2076 5.53333 23.9542 5.20667 23.6276 4.98C23.3076 4.74667 22.9442 4.63 22.5376 4.63C22.1242 4.63 21.7576 4.74667 21.4376 4.98C21.1176 5.20667 20.8642 5.53333 20.6776 5.96C20.4909 6.38667 20.3976 6.9 20.3976 7.5C20.3976 8.1 20.4909 8.61667 20.6776 9.05C20.8642 9.47667 21.1176 9.80667 21.4376 10.04C21.7576 10.2667 22.1242 10.38 22.5376 10.38ZM29.5212 11.12C28.9012 11.12 28.3645 10.97 27.9112 10.67C27.4645 10.3633 27.1212 9.94 26.8812 9.4C26.6412 8.85333 26.5212 8.22 26.5212 7.5C26.5212 6.78 26.6412 6.15 26.8812 5.61C27.1212 5.06333 27.4645 4.64 27.9112 4.34C28.3645 4.03333 28.9012 3.88 29.5212 3.88C30.1412 3.88 30.6745 4.03333 31.1212 4.34C31.5678 4.64 31.9112 5.06333 32.1512 5.61C32.3912 6.15 32.5112 6.78 32.5112 7.5C32.5112 8.22 32.3912 8.85333 32.1512 9.4C31.9112 9.94 31.5678 10.3633 31.1212 10.67C30.6745 10.97 30.1412 11.12 29.5212 11.12ZM29.5212 10.38C29.9278 10.38 30.2912 10.2667 30.6112 10.04C30.9378 9.80667 31.1912 9.47667 31.3712 9.05C31.5578 8.61667 31.6512 8.1 31.6512 7.5C31.6512 6.9 31.5578 6.38667 31.3712 5.96C31.1912 5.53333 30.9378 5.20667 30.6112 4.98C30.2912 4.74667 29.9278 4.63 29.5212 4.63C29.1078 4.63 28.7412 4.74667 28.4212 4.98C28.1012 5.20667 27.8478 5.53333 27.6612 5.96C27.4745 6.38667 27.3812 6.9 27.3812 7.5C27.3812 8.1 27.4745 8.61667 27.6612 9.05C27.8478 9.47667 28.1012 9.80667 28.4212 10.04C28.7412 10.2667 29.1078 10.38 29.5212 10.38ZM33.7248 11V3.8H34.5648V8.13L36.5948 6.04H37.6248L35.4248 8.28L37.9048 11H36.8348L34.5648 8.43V11H33.7248Z" fill="black" fill-opacity="0.4"/>
</svg>
